Results
version=1
nRows=19
nColumns=21
inDegrees=yes
endheader
time	r_shoulder_elev	r_elbow_flex	r_shoulder_elev_u	r_elbow_flex_u	TRIlong.activation	TRIlong.fiber_length	TRIlat.activation	TRIlat.fiber_length	TRImed.activation	TRImed.fiber_length	BIClong.activation	BIClong.fiber_length	BICshort.activation	BICshort.fiber_length	BRA.activation	BRA.fiber_length	DeltAnt.activation	DeltAnt.fiber_length	DeltPost.activation	DeltPost.fiber_length
      1.50000000	     -7.29312453	     26.90055363	    113.03542568	     52.72287836	      0.05008064	      0.14181991	      0.05002272	      0.08054591	      0.05001497	      0.07560332	      0.18870175	      0.13862156	      0.20441350	      0.13980267	      0.12653352	      0.08548930	      0.06960636	      0.16625770	      0.05383000	      0.10175242
      1.50100000	     -7.18005429	     26.95344324	    113.10039616	     53.00820606	      0.05007949	      0.14191158	      0.05002239	      0.08056732	      0.05001476	      0.07562465	      0.18909088	      0.13856695	      0.20427413	      0.13974962	      0.12742932	      0.08548293	      0.07025458	      0.16619264	      0.05378041	      0.10185992
      1.50200000	     -7.06689635	     27.00657112	    113.20922565	     53.20431029	      0.05007835	      0.14200344	      0.05002207	      0.08058880	      0.05001455	      0.07564606	      0.18945166	      0.13851225	      0.20411274	      0.13969702	      0.12826192	      0.08547615	      0.07084517	      0.16612688	      0.05372598	      0.10196751
      1.50300000	     -6.95363068	     27.05982861	    113.36721434	     53.30067982	      0.05007723	      0.14209545	      0.05002176	      0.08061035	      0.05001434	      0.07566754	      0.18977555	      0.13845749	      0.20395409	      0.13964477	      0.12899807	      0.08546913	      0.07135847	      0.16606084	      0.05367222	      0.10207506
      1.50400000	     -6.84015720	     27.11312175	    113.59104157	     53.26355067	      0.05007613	      0.14218765	      0.05002145	      0.08063198	      0.05001414	      0.07568910	      0.19005686	      0.13840268	      0.20379896	      0.13959291	      0.12962507	      0.08546191	      0.07178598	      0.16599469	      0.05361931	      0.10218274
      1.50500000	     -6.72643668	     27.16632349	    113.86838185	     53.11793476	      0.05007504	      0.14228001	      0.05002114	      0.08065364	      0.05001394	      0.07571069	      0.19030495	      0.13834785	      0.20364691	      0.13954138	      0.13016865	      0.08545459	      0.07214930	      0.16592852	      0.05356716	      0.10229050
      1.50600000	     -6.61240732	     27.21932586	    114.19233995	     52.87780811	      0.05007397	      0.14237252	      0.05002084	      0.08067532	      0.05001374	      0.07573230	      0.19052262	      0.13829301	      0.20349801	      0.13949017	      0.13063728	      0.08544724	      0.07245608	      0.16586233	      0.05351579	      0.10239836
      1.50700000	     -6.49803063	     27.27204660	    114.55122526	     52.56683978	      0.05007292	      0.14246517	      0.05002054	      0.08069699	      0.05001354	      0.07575389	      0.19071386	      0.13823818	      0.20335215	      0.13943924	      0.13104198	      0.08543991	      0.07271560	      0.16579611	      0.05346517	      0.10250653
      1.50800000	     -6.38328297	     27.32442946	    114.93684581	     52.20164005	      0.05007188	      0.14255795	      0.05002025	      0.08071861	      0.05001335	      0.07577544	      0.19088235	      0.13818337	      0.20320923	      0.13938860	      0.13139263	      0.08543262	      0.07293596	      0.16572981	      0.05341529	      0.10261479
      1.50900000	     -6.26816530	     27.37645294	    115.33918479	     51.80246578	      0.05007085	      0.14265085	      0.05001996	      0.08074017	      0.05001316	      0.07579691	      0.19103185	      0.13812860	      0.20306901	      0.13933821	      0.13169892	      0.08542539	      0.07312479	      0.16566341	      0.05336608	      0.10272333
      1.51000000	     -6.15262441	     27.42804984	    115.75279937	     51.38027930	      0.05006984	      0.14274387	      0.05001967	      0.08076163	      0.05001297	      0.07581827	      0.19116277	      0.13807388	      0.20293173	      0.13928809	      0.13196255	      0.08541825	      0.07328386	      0.16559686	      0.05331762	      0.10283222
      1.51100000	     -6.03663457	     27.47918618	    116.16814776	     50.95463684	      0.05006884	      0.14283702	      0.05001939	      0.08078296	      0.05001278	      0.07583950	      0.19241837	      0.13801876	      0.20304652	      0.13923816	      0.13249150	      0.08541112	      0.07316986	      0.16553035	      0.05326991	      0.10294125
      1.51200000	     -5.92023836	     27.52991639	    116.56410686	     50.56935179	      0.05006786	      0.14293029	      0.05001912	      0.08080416	      0.05001260	      0.07586060	      0.19359698	      0.13796292	      0.20316368	      0.13918832	      0.13296948	      0.08540395	      0.07303987	      0.16546392	      0.05322290	      0.10305060
      1.51300000	     -5.80351425	     27.58033827	    116.93470837	     50.23704716	      0.05006689	      0.14302366	      0.05001884	      0.08082524	      0.05001242	      0.07588158	      0.19465279	      0.13790660	      0.20326902	      0.13913856	      0.13339208	      0.08539679	      0.07291160	      0.16539744	      0.05317647	      0.10316015
      1.51400000	     -5.68640380	     27.63043822	    117.26551612	     49.98811105	      0.05006594	      0.14311716	      0.05001858	      0.08084618	      0.05001225	      0.07590241	      0.19556969	      0.13784985	      0.20336087	      0.13908897	      0.13375284	      0.08538968	      0.07278550	      0.16533079	      0.05313078	      0.10326994
      1.51500000	     -5.56900207	     27.68034119	    117.56014173	     49.81510263	      0.05006499	      0.14321079	      0.05001831	      0.08086700	      0.05001207	      0.07592311	      0.19638384	      0.13779284	      0.20344269	      0.13903952	      0.13406851	      0.08538263	      0.07266120	      0.16526394	      0.05308570	      0.10337991
      1.51600000	     -5.45131157	     27.73010630	    117.81453091	     49.72659577	      0.05006407	      0.14330457	      0.05001805	      0.08088770	      0.05001190	      0.07594370	      0.19709588	      0.13773566	      0.20351446	      0.13899025	      0.13433997	      0.08537565	      0.07253892	      0.16519688	      0.05304131	      0.10348995
      1.51700000	     -5.33337778	     27.77982282	    118.02956081	     49.72051374	      0.05006315	      0.14339850	      0.05001779	      0.08090830	      0.05001173	      0.07596420	      0.19772007	      0.13767839	      0.20357756	      0.13894116	      0.13457400	      0.08536875	      0.07241860	      0.16512960	      0.05299759	      0.10360016
      1.51800000	     -5.21525557	     27.82956810	    118.21078861	     49.78499857	      0.05006225	      0.14349259	      0.05001754	      0.08092884	      0.05001156	      0.07598464	      0.19827339	      0.13762109	      0.20363361	      0.13889225	      0.13477826	      0.08536193	      0.07230003	      0.16506215	      0.05295448	      0.10371041
